<?xml version="1.0" encoding="UTF-8"?>
<!DOCTYPE svg PUBLIC "-//W3C//DTD SVG 1.1//EN" "http://www.w3.org/Graphics/SVG/1.1/DTD/svg11.dtd">
<svg xmlns="http://www.w3.org/2000/svg" version="1.1" width="128px" height="128px" style="shape-rendering:geometricPrecision; text-rendering:geometricPrecision; image-rendering:optimizeQuality; fill-rule:evenodd; clip-rule:evenodd" xmlns:xlink="http://www.w3.org/1999/xlink">
<g><path style="opacity:0.862" fill="#080b07" d="M 84.5,-0.5 C 97.8333,-0.5 111.167,-0.5 124.5,-0.5C 125.167,0.833333 126.167,1.83333 127.5,2.5C 127.5,5.83333 127.5,9.16667 127.5,12.5C 127.167,12.5 126.833,12.5 126.5,12.5C 125.504,12.5858 124.671,12.2524 124,11.5C 123.774,8.905 123.274,6.405 122.5,4C 117.845,3.50085 113.179,3.33418 108.5,3.5C 100.913,3.18583 93.4129,3.51916 86,4.5C 85.1689,11.5237 85.3356,18.5237 86.5,25.5C 88.9486,25.98 91.1153,26.98 93,28.5C 93.3333,31.8333 93.6667,35.1667 94,38.5C 95.6667,35.5 97.3333,32.5 99,29.5C 100.129,27.8588 101.629,26.8588 103.5,26.5C 109.509,26.6662 115.509,26.4995 121.5,26C 123.121,23.834 123.955,21.334 124,18.5C 124.671,17.7476 125.504,17.4142 126.5,17.5C 126.833,17.5 127.167,17.5 127.5,17.5C 127.5,20.5 127.5,23.5 127.5,26.5C 126.36,27.8014 125.027,28.9681 123.5,30C 116.833,30.3333 110.167,30.6667 103.5,31C 100.874,35.0838 98.3742,39.2505 96,43.5C 94,44.8333 92,44.8333 90,43.5C 89.501,39.1794 89.3343,34.8461 89.5,30.5C 84.9674,30.8232 82.1341,28.8232 81,24.5C 80.3333,17.8333 80.3333,11.1667 81,4.5C 81.9973,2.67694 83.1639,1.01027 84.5,-0.5 Z"/></g>
<g><path style="opacity:1" fill="#ade09c" d="M 108.5,3.5 C 109.301,5.04181 109.634,6.70848 109.5,8.5C 106.167,8.5 102.833,8.5 99.5,8.5C 99.5,9.83333 99.5,11.1667 99.5,12.5C 102.833,12.5 106.167,12.5 109.5,12.5C 109.5,14.1667 109.5,15.8333 109.5,17.5C 103.158,17.3338 96.8246,17.5005 90.5,18C 89.1667,19 89.1667,20 90.5,21C 96.8246,21.4995 103.158,21.6662 109.5,21.5C 109.67,22.8221 109.337,23.9887 108.5,25C 106.618,25.1981 104.952,25.6981 103.5,26.5C 101.629,26.8588 100.129,27.8588 99,29.5C 97.3333,32.5 95.6667,35.5 94,38.5C 93.6667,35.1667 93.3333,31.8333 93,28.5C 91.1153,26.98 88.9486,25.98 86.5,25.5C 85.3356,18.5237 85.1689,11.5237 86,4.5C 93.4129,3.51916 100.913,3.18583 108.5,3.5 Z"/></g>
<g><path style="opacity:1" fill="#90cf9e" d="M 108.5,3.5 C 113.179,3.33418 117.845,3.50085 122.5,4C 123.274,6.405 123.774,8.905 124,11.5C 124.671,12.2524 125.504,12.5858 126.5,12.5C 126.5,14.1667 126.5,15.8333 126.5,17.5C 125.504,17.4142 124.671,17.7476 124,18.5C 123.955,21.334 123.121,23.834 121.5,26C 115.509,26.4995 109.509,26.6662 103.5,26.5C 104.952,25.6981 106.618,25.1981 108.5,25C 109.337,23.9887 109.67,22.8221 109.5,21.5C 112.5,21.5 115.5,21.5 118.5,21.5C 118.5,20.1667 118.5,18.8333 118.5,17.5C 115.5,17.5 112.5,17.5 109.5,17.5C 109.5,15.8333 109.5,14.1667 109.5,12.5C 112.5,12.5 115.5,12.5 118.5,12.5C 118.5,11.1667 118.5,9.83333 118.5,8.5C 115.5,8.5 112.5,8.5 109.5,8.5C 109.634,6.70848 109.301,5.04181 108.5,3.5 Z"/></g>
<g><path style="opacity:0.919" fill="#09090a" d="M 97.5,127.5 C 65.5,127.5 33.5,127.5 1.5,127.5C 1.16667,126.5 0.5,125.833 -0.5,125.5C -0.5,122.833 -0.5,120.167 -0.5,117.5C -0.671684,107.864 1.82832,98.8635 7,90.5C 7.12976,86.0492 7.79642,81.7159 9,77.5C 10.1711,76.1068 11.6711,75.2735 13.5,75C 21.1594,74.5003 28.8261,74.3336 36.5,74.5C 36.8134,71.7531 36.48,69.0865 35.5,66.5C 30.4676,62.7689 27.8009,57.7689 27.5,51.5C 20.5923,52.0914 17.5923,48.9248 18.5,42C 20.7503,34.4845 22.2503,26.6512 23,18.5C 24.8333,12.6667 28.6667,8.83333 34.5,7C 44.5,6.33333 54.5,6.33333 64.5,7C 67.3974,8.71547 68.7307,11.2155 68.5,14.5C 72.6584,14.6596 75.4918,16.6596 77,20.5C 77.3333,24.5 77.6667,28.5 78,32.5C 78.9147,33.3279 79.5814,34.3279 80,35.5C 80.6667,42.5 80.6667,49.5 80,56.5C 77.2689,59.7121 73.7689,61.2121 69.5,61C 67.3333,63.1667 65.1667,65.3333 63,67.5C 62.3333,69.5 62.3333,71.5 63,73.5C 70.7543,74.3166 78.5876,74.8166 86.5,75C 91.7016,77.9339 93.3682,82.2673 91.5,88C 94.3357,92.507 96.5024,97.3403 98,102.5C 98.0184,108.984 98.8517,115.317 100.5,121.5C 100.016,123.801 99.0163,125.801 97.5,127.5 Z M 72.5,51.5 C 77.1365,51.4925 77.3032,52.8258 73,55.5C 72.5,55.1667 72,54.8333 71.5,54.5C 72.1272,53.5832 72.4606,52.5832 72.5,51.5 Z"/></g>
<g><path style="opacity:1" fill="#181c16" d="M 90.5,8.5 C 91.8734,8.34332 93.2068,8.50999 94.5,9C 95.4506,9.71752 95.6172,10.5509 95,11.5C 91.0539,13.3597 89.5539,12.3597 90.5,8.5 Z"/></g>
<g><path style="opacity:1" fill="#111511" d="M 109.5,8.5 C 112.5,8.5 115.5,8.5 118.5,8.5C 118.5,9.83333 118.5,11.1667 118.5,12.5C 115.5,12.5 112.5,12.5 109.5,12.5C 106.167,12.5 102.833,12.5 99.5,12.5C 99.5,11.1667 99.5,9.83333 99.5,8.5C 102.833,8.5 106.167,8.5 109.5,8.5 Z"/></g>
<g><path style="opacity:1" fill="#726b75" d="M 54.5,10.5 C 56.5963,13.1079 57.9297,16.1079 58.5,19.5C 58.0576,20.7387 57.3909,21.7387 56.5,22.5C 51.1855,23.7634 45.8522,23.7634 40.5,22.5C 36.4971,22.2492 33.6638,23.9158 32,27.5C 31.5017,30.8168 31.335,34.1501 31.5,37.5C 29.8561,37.7135 28.3561,37.3802 27,36.5C 23.3593,14.6926 32.5259,6.02597 54.5,10.5 Z"/></g>
<g><path style="opacity:1" fill="#605960" d="M 54.5,10.5 C 57.1873,10.3359 59.854,10.5026 62.5,11C 64.0037,12.4907 64.8371,14.324 65,16.5C 67.9239,17.7344 70.5905,19.4011 73,21.5C 73.6667,26.1667 73.6667,30.8333 73,35.5C 71.4157,36.8613 69.5824,37.528 67.5,37.5C 70.142,27.5079 66.4753,22.5079 56.5,22.5C 57.3909,21.7387 58.0576,20.7387 58.5,19.5C 57.9297,16.1079 56.5963,13.1079 54.5,10.5 Z"/></g>
<g><path style="opacity:1" fill="#0e120c" d="M 109.5,17.5 C 112.5,17.5 115.5,17.5 118.5,17.5C 118.5,18.8333 118.5,20.1667 118.5,21.5C 115.5,21.5 112.5,21.5 109.5,21.5C 103.158,21.6662 96.8246,21.4995 90.5,21C 89.1667,20 89.1667,19 90.5,18C 96.8246,17.5005 103.158,17.3338 109.5,17.5 Z"/></g>
<g><path style="opacity:1" fill="#f9d7c9" d="M 55.5,26.5 C 56.5,26.5 57.5,26.5 58.5,26.5C 58.5,35.1667 58.5,43.8333 58.5,52.5C 54.7458,53.8654 53.5791,56.5321 55,60.5C 56.8259,62.0738 58.9925,62.9071 61.5,63C 53.5696,68.9226 45.5696,68.9226 37.5,63C 30.7867,55.5678 29.9534,47.7345 35,39.5C 35.3333,35.5 35.6667,31.5 36,27.5C 37.3129,26.4272 38.8129,25.7605 40.5,25.5C 45.4564,26.394 50.4564,26.7274 55.5,26.5 Z"/></g>
<g><path style="opacity:1" fill="#f5c4b7" d="M 55.5,26.5 C 58.1431,25.0209 60.6431,25.3542 63,27.5C 63.3333,31.5 63.6667,35.5 64,39.5C 65.1096,41.0368 66.6096,41.7035 68.5,41.5C 68.6653,45.1817 68.4986,48.8484 68,52.5C 64.9832,52.781 61.8166,52.781 58.5,52.5C 58.5,43.8333 58.5,35.1667 58.5,26.5C 57.5,26.5 56.5,26.5 55.5,26.5 Z"/></g>
<g><path style="opacity:1" fill="#8bb0e0" d="M 75.5,38.5 C 76.6341,40.9664 76.8007,43.633 76,46.5C 74.6439,47.3802 73.1439,47.7135 71.5,47.5C 70.8363,43.4094 72.1696,40.4094 75.5,38.5 Z"/></g>
<g><path style="opacity:1" fill="#8aafde" d="M 22.5,37.5 C 26.568,39.5144 28.2347,42.8477 27.5,47.5C 25.8561,47.7135 24.3561,47.3802 23,46.5C 22.502,43.5184 22.3354,40.5184 22.5,37.5 Z"/></g>
<g><path style="opacity:1" fill="#b9535d" d="M 57.5,56.5 C 60.2469,56.1866 62.9135,56.52 65.5,57.5C 64.6519,58.9911 63.3186,59.6578 61.5,59.5C 59.0182,59.8896 57.6848,58.8896 57.5,56.5 Z"/></g>
<g><path style="opacity:1" fill="#e6c7ba" d="M 40.5,69.5 C 46.492,70.7742 52.492,70.7742 58.5,69.5C 58.5,71.5 58.5,73.5 58.5,75.5C 52.5,75.5 46.5,75.5 40.5,75.5C 40.5,73.5 40.5,71.5 40.5,69.5 Z"/></g>
<g><path style="opacity:1" fill="#e7effc" d="M 14.5,79.5 C 33.8362,79.3334 53.1695,79.5 72.5,80C 73.1222,81.5691 73.4555,83.2358 73.5,85C 72.7833,95.169 72.1166,105.336 71.5,115.5C 66.8333,115.5 62.1667,115.5 57.5,115.5C 57.3433,114.127 57.51,112.793 58,111.5C 64.1602,104.122 63.9935,96.9555 57.5,90C 55.8659,89.5065 54.1992,89.3398 52.5,89.5C 52.5,93.1667 52.5,96.8333 52.5,100.5C 50.8333,100.5 49.1667,100.5 47.5,100.5C 47.665,97.1501 47.4983,93.8168 47,90.5C 43.9074,89.1062 41.2408,89.7728 39,92.5C 36.1074,97.3138 35.7741,102.314 38,107.5C 39.6971,109.699 41.1971,112.032 42.5,114.5C 32.8563,115.498 23.1896,115.832 13.5,115.5C 13.6621,113.473 13.4955,111.473 13,109.5C 12.3292,108.748 11.4959,108.414 10.5,108.5C 10.5,106.833 10.5,105.167 10.5,103.5C 11.1174,103.389 11.6174,103.056 12,102.5C 12.1667,100.333 12.3333,98.1667 12.5,96C 11.8138,90.8348 11.6471,85.6681 12,80.5C 12.6708,79.7476 13.5041,79.4142 14.5,79.5 Z"/></g>
<g><path style="opacity:1" fill="#ccd8e8" d="M 14.5,79.5 C 37.9964,78.3369 61.6631,78.1702 85.5,79C 86,79.5 86.5,80 87,80.5C 87.3888,92.1713 87.2221,103.838 86.5,115.5C 81.5,115.5 76.5,115.5 71.5,115.5C 72.1166,105.336 72.7833,95.169 73.5,85C 73.4555,83.2358 73.1222,81.5691 72.5,80C 53.1695,79.5 33.8362,79.3334 14.5,79.5 Z"/></g>
<g><path style="opacity:1" fill="#77a7e9" d="M 55.5,93.5 C 57.6564,95.3323 58.9897,97.6657 59.5,100.5C 58.7317,104.703 56.8984,108.37 54,111.5C 53.51,112.793 53.3433,114.127 53.5,115.5C 50.8806,115.768 48.3806,115.435 46,114.5C 43.8719,109.916 42.0385,105.25 40.5,100.5C 40.2207,97.9937 41.0541,95.9937 43,94.5C 42.2909,104.472 46.2909,107.139 55,102.5C 55.498,99.5184 55.6646,96.5184 55.5,93.5 Z"/></g>
<g><path style="opacity:1" fill="#ecc05c" d="M 10.5,103.5 C 10.5,105.167 10.5,106.833 10.5,108.5C 9.53178,110.607 9.19845,112.941 9.5,115.5C 7.83333,115.5 6.16667,115.5 4.5,115.5C 3.96489,108.843 5.13156,102.51 8,96.5C 8.33333,98.5 8.66667,100.5 9,102.5C 9.38258,103.056 9.88258,103.389 10.5,103.5 Z"/></g>
<g><path style="opacity:1" fill="#f1c55e" d="M 90.5,96.5 C 92.3115,98.3854 93.4782,100.719 94,103.5C 94.4988,107.486 94.6655,111.486 94.5,115.5C 93.1667,115.5 91.8333,115.5 90.5,115.5C 90.5,109.167 90.5,102.833 90.5,96.5 Z"/></g>
<g><path style="opacity:1" fill="#9ac3f8" d="M 81.5,119.5 C 81.5,120.833 81.5,122.167 81.5,123.5C 55.5,123.5 29.5,123.5 3.5,123.5C 3.5,122.167 3.5,120.833 3.5,119.5C 29.5,119.5 55.5,119.5 81.5,119.5 Z"/></g>
<g><path style="opacity:1" fill="#7cadf3" d="M 81.5,119.5 C 86.1785,119.334 90.8452,119.501 95.5,120C 96.8333,121 96.8333,122 95.5,123C 90.8452,123.499 86.1785,123.666 81.5,123.5C 81.5,122.167 81.5,120.833 81.5,119.5 Z"/></g>
</svg>
