<?xml version="1.0" encoding="UTF-8"?>
<!DOCTYPE svg PUBLIC "-//W3C//DTD SVG 1.1//EN" "http://www.w3.org/Graphics/SVG/1.1/DTD/svg11.dtd">
<svg xmlns="http://www.w3.org/2000/svg" version="1.1" width="128px" height="128px" style="shape-rendering:geometricPrecision; text-rendering:geometricPrecision; image-rendering:optimizeQuality; fill-rule:evenodd; clip-rule:evenodd" xmlns:xlink="http://www.w3.org/1999/xlink">
<g><path style="opacity:0.883" fill="#050301" d="M 127.5,4.5 C 127.5,28.8333 127.5,53.1667 127.5,77.5C 126.118,78.8005 124.452,79.6339 122.5,80C 95.1667,80.3333 67.8333,80.6667 40.5,81C 46.4522,87.1226 53.1189,92.2892 60.5,96.5C 63.8377,93.6621 66.8377,90.4954 69.5,87C 72.9983,85.0333 76.3316,85.3666 79.5,88C 86,92.5 92.5,97 99,101.5C 100.373,103.695 100.706,106.029 100,108.5C 95.182,122.161 85.682,127.327 71.5,124C 57.7033,120.438 45.7033,113.771 35.5,104C 19.1434,90.063 7.14338,73.2297 -0.5,53.5C -0.5,47.8333 -0.5,42.1667 -0.5,36.5C 4.37478,28.7305 11.3748,24.5638 20.5,24C 23,25.1667 24.8333,27 26,29.5C 26.3333,21.8333 26.6667,14.1667 27,6.5C 27.4652,5.06919 28.2986,3.90252 29.5,3C 61.5,2.33333 93.5,2.33333 125.5,3C 126.044,3.71719 126.711,4.21719 127.5,4.5 Z M 29.5,60.5 C 29.5,62.1667 29.5,63.8333 29.5,65.5C 26.8333,63.8333 26.8333,62.1667 29.5,60.5 Z"/></g>
<g><path style="opacity:1" fill="#f55320" d="M 122.5,7.5 C 120.597,8.94733 118.93,10.614 117.5,12.5C 115.692,12.4914 114.025,12.9914 112.5,14C 100.975,23.0254 89.3085,31.8587 77.5,40.5C 64.5337,31.528 51.867,22.1947 39.5,12.5C 36.9097,11.2508 34.5764,9.58409 32.5,7.5C 62.5,6.16667 92.5,6.16667 122.5,7.5 Z"/></g>
<g><path style="opacity:1" fill="#f04234" d="M 32.5,7.5 C 34.5764,9.58409 36.9097,11.2508 39.5,12.5C 36.0401,13.2604 35.7068,14.7604 38.5,17C 48.0822,23.9446 57.4155,31.1112 66.5,38.5C 64.9373,39.9448 63.604,41.6115 62.5,43.5C 61.5768,42.6971 60.5768,42.5304 59.5,43C 52.6981,50.803 45.5314,58.303 38,65.5C 37.1558,67.4628 37.6558,68.7961 39.5,69.5C 36.8664,70.1334 35.1998,71.8001 34.5,74.5C 31.5947,72.244 29.928,69.244 29.5,65.5C 29.5,63.8333 29.5,62.1667 29.5,60.5C 31.1696,57.9984 33.3363,55.9984 36,54.5C 36.8749,53.1268 37.3749,51.6268 37.5,50C 36.3243,46.4859 34.491,43.3192 32,40.5C 31.1743,29.3255 31.341,18.3255 32.5,7.5 Z"/></g>
<g><path style="opacity:1" fill="#bb2626" d="M 122.5,7.5 C 123.833,29.8333 123.833,52.1667 122.5,74.5C 121.167,73.1667 119.833,71.8333 118.5,70.5C 118.5,69.8333 118.167,69.5 117.5,69.5C 117.5,68.5 117.5,67.5 117.5,66.5C 118.833,49.5 118.833,32.5 117.5,15.5C 117.5,14.5 117.5,13.5 117.5,12.5C 118.93,10.614 120.597,8.94733 122.5,7.5 Z"/></g>
<g><path style="opacity:1" fill="#130602" d="M 39.5,12.5 C 51.867,22.1947 64.5337,31.528 77.5,40.5C 89.3085,31.8587 100.975,23.0254 112.5,14C 114.025,12.9914 115.692,12.4914 117.5,12.5C 117.5,13.5 117.5,14.5 117.5,15.5C 107.651,22.926 97.9846,30.5926 88.5,38.5C 84.8967,40.8855 81.0634,42.8855 77,44.5C 73.1349,43.134 69.6349,41.134 66.5,38.5C 57.4155,31.1112 48.0822,23.9446 38.5,17C 35.7068,14.7604 36.0401,13.2604 39.5,12.5 Z"/></g>
<g><path style="opacity:1" fill="#f14234" d="M 117.5,15.5 C 118.833,32.5 118.833,49.5 117.5,66.5C 110.033,58.8639 102.7,51.0306 95.5,43C 94.4232,42.5304 93.4232,42.6971 92.5,43.5C 91.396,41.6115 90.0627,39.9448 88.5,38.5C 97.9846,30.5926 107.651,22.926 117.5,15.5 Z"/></g>
<g><path style="opacity:1" fill="#f1ce31" d="M 30.5,53.5 C 26.6054,46.7213 22.4388,40.0546 18,33.5C 16.9609,32.2899 15.7942,31.2899 14.5,30.5C 15.9321,28.3531 17.7655,28.0198 20,29.5C 24.0862,36.0069 28.4196,42.3402 33,48.5C 33.747,50.9278 32.9137,52.5944 30.5,53.5 Z"/></g>
<g><path style="opacity:1" fill="#fbe739" d="M 14.5,30.5 C 15.7942,31.2899 16.9609,32.2899 18,33.5C 22.4388,40.0546 26.6054,46.7213 30.5,53.5C 28.4946,55.334 26.3279,57.0007 24,58.5C 22.9914,60.0249 22.4914,61.6916 22.5,63.5C 20.5589,65.0106 20.0589,67.0106 21,69.5C 29.7278,83.895 41.3945,95.2283 56,103.5C 57.4595,103.192 58.6261,102.525 59.5,101.5C 61.3084,101.509 62.9751,101.009 64.5,100C 66.7341,97.9373 68.7341,95.7706 70.5,93.5C 77.2787,97.3946 83.9454,101.561 90.5,106C 92.1554,107.444 92.822,109.278 92.5,111.5C 91.1905,114.95 88.8572,117.45 85.5,119C 79.0828,119.87 72.7494,119.536 66.5,118C 42.9412,106.112 24.1078,88.9452 10,66.5C 5.50221,58.3553 3.50221,49.6886 4,40.5C 5.45615,35.0217 8.95615,31.6884 14.5,30.5 Z"/></g>
<g><path style="opacity:1" fill="#fc5621" d="M 66.5,38.5 C 69.6349,41.134 73.1349,43.134 77,44.5C 81.0634,42.8855 84.8967,40.8855 88.5,38.5C 90.0627,39.9448 91.396,41.6115 92.5,43.5C 92.3505,44.552 92.5172,45.552 93,46.5C 99.6498,53.9839 106.483,61.3172 113.5,68.5C 114.689,69.4287 116.022,69.762 117.5,69.5C 118.167,69.5 118.5,69.8333 118.5,70.5C 118.5,71.8333 118.5,73.1667 118.5,74.5C 90.5,74.5 62.5,74.5 34.5,74.5C 35.1998,71.8001 36.8664,70.1334 39.5,69.5C 48.683,61.9952 56.3497,53.3285 62.5,43.5C 63.604,41.6115 64.9373,39.9448 66.5,38.5 Z"/></g>
<g><path style="opacity:1" fill="#130602" d="M 62.5,43.5 C 56.3497,53.3285 48.683,61.9952 39.5,69.5C 37.6558,68.7961 37.1558,67.4628 38,65.5C 45.5314,58.303 52.6981,50.803 59.5,43C 60.5768,42.5304 61.5768,42.6971 62.5,43.5 Z"/></g>
<g><path style="opacity:1" fill="#140602" d="M 117.5,66.5 C 117.5,67.5 117.5,68.5 117.5,69.5C 116.022,69.762 114.689,69.4287 113.5,68.5C 106.483,61.3172 99.6498,53.9839 93,46.5C 92.5172,45.552 92.3505,44.552 92.5,43.5C 93.4232,42.6971 94.4232,42.5304 95.5,43C 102.7,51.0306 110.033,58.8639 117.5,66.5 Z"/></g>
<g><path style="opacity:1" fill="#f1ce31" d="M 22.5,63.5 C 31.4785,79.4779 43.8118,92.1445 59.5,101.5C 58.6261,102.525 57.4595,103.192 56,103.5C 41.3945,95.2283 29.7278,83.895 21,69.5C 20.0589,67.0106 20.5589,65.0106 22.5,63.5 Z"/></g>
<g><path style="opacity:1" fill="#ce451b" d="M 118.5,70.5 C 119.833,71.8333 121.167,73.1667 122.5,74.5C 93.1667,75.8333 63.8333,75.8333 34.5,74.5C 62.5,74.5 90.5,74.5 118.5,74.5C 118.5,73.1667 118.5,71.8333 118.5,70.5 Z"/></g>
<g><path style="opacity:1" fill="#f4d032" d="M 92.5,111.5 C 92.822,109.278 92.1554,107.444 90.5,106C 83.9454,101.561 77.2787,97.3946 70.5,93.5C 71.4056,91.0863 73.0722,90.253 75.5,91C 81.6598,95.5804 87.9931,99.9138 94.5,104C 95.4911,106.875 94.8244,109.375 92.5,111.5 Z"/></g>
</svg>
