<?xml version="1.0" encoding="UTF-8"?>
<!DOCTYPE svg PUBLIC "-//W3C//DTD SVG 1.1//EN" "http://www.w3.org/Graphics/SVG/1.1/DTD/svg11.dtd">
<svg xmlns="http://www.w3.org/2000/svg" version="1.1" width="128px" height="128px" style="shape-rendering:geometricPrecision; text-rendering:geometricPrecision; image-rendering:optimizeQuality; fill-rule:evenodd; clip-rule:evenodd" xmlns:xlink="http://www.w3.org/1999/xlink">
<g><path style="opacity:0.869" fill="#1e1b1a" d="M 59.5,2.5 C 63.7924,2.03488 67.7924,2.86822 71.5,5C 78.6169,9.78253 85.4503,14.9492 92,20.5C 92.8624,22.087 93.5291,23.7536 94,25.5C 94.1725,29.8711 94.6725,34.2044 95.5,38.5C 99.7409,41.1537 101.408,44.9871 100.5,50C 101.423,56.6889 98.7559,60.8556 92.5,62.5C 91.1589,72.685 86.1589,80.5184 77.5,86C 95.9155,84.751 104.749,93.251 104,111.5C 102.272,114.953 99.4385,116.786 95.5,117C 84.8923,118.92 74.2256,120.42 63.5,121.5C 50.6059,120.492 37.9392,118.325 25.5,115C 22.6403,111.319 21.8069,107.152 23,102.5C 27.1672,89.8198 36.0005,84.3198 49.5,86C 40.8276,80.4838 35.8276,72.6505 34.5,62.5C 28.2441,60.8556 25.5775,56.6889 26.5,50C 25.5924,44.9871 27.2591,41.1537 31.5,38.5C 32.156,33.1206 32.9893,27.7873 34,22.5C 35.1217,20.3762 36.6217,18.5429 38.5,17C 45.4035,11.9135 52.4035,7.08013 59.5,2.5 Z"/></g>
<g><path style="opacity:1" fill="#3c3b3a" d="M 60.5,5.5 C 64.1309,5.16039 67.4642,5.99372 70.5,8C 75.9913,12.2459 81.6579,16.2459 87.5,20C 91.1914,24.1355 92.3581,28.9688 91,34.5C 88.8333,31 86,28.1667 82.5,26C 70.5578,24.4186 58.5578,24.0852 46.5,25C 42.052,27.1145 38.552,30.2811 36,34.5C 35.1462,30.3749 35.4796,26.3749 37,22.5C 44.7353,16.583 52.5686,10.9163 60.5,5.5 Z"/></g>
<g><path style="opacity:1" fill="#fbd1b0" d="M 48.5,26.5 C 58.5056,26.3335 68.5056,26.5002 78.5,27C 84.7673,28.9337 88.6006,33.1004 90,39.5C 97.1941,42.5012 99.5275,47.8345 97,55.5C 96.5348,56.9308 95.7014,58.0975 94.5,59C 92.6711,59.2735 91.1711,60.1068 90,61.5C 85.5592,81.3114 73.3926,88.8114 53.5,84C 43.9959,79.512 38.4959,72.012 37,61.5C 35,60.1667 33,58.8333 31,57.5C 29.4661,53.2891 29.1327,48.9558 30,44.5C 31.7985,42.0275 34.1318,40.3608 37,39.5C 38.5893,33.0828 42.4227,28.7495 48.5,26.5 Z"/></g>
<g><path style="opacity:1" fill="#262422" d="M 48.5,43.5 C 55.8421,43.2066 57.8421,46.2066 54.5,52.5C 49.6597,54.7724 46.993,53.2724 46.5,48C 46.5186,46.167 47.1852,44.667 48.5,43.5 Z"/></g>
<g><path style="opacity:1" fill="#262422" d="M 73.5,43.5 C 79.0001,42.8314 81.1667,45.1647 80,50.5C 77,54.5 74,54.5 71,50.5C 70.162,47.5193 70.9953,45.1859 73.5,43.5 Z"/></g>
<g><path style="opacity:1" fill="#cfa28b" d="M 73.5,90.5 C 73.6309,89.6236 73.2975,88.9569 72.5,88.5C 66.3031,89.8173 60.1364,89.8173 54,88.5C 53.5357,89.0944 53.369,89.7611 53.5,90.5C 52.218,89.2918 52.218,87.9584 53.5,86.5C 60.4791,87.7109 67.4791,87.7109 74.5,86.5C 74.7678,88.099 74.4345,89.4324 73.5,90.5 Z"/></g>
<g><path style="opacity:1" fill="#e45b85" d="M 39.5,89.5 C 40.8255,93.4451 41.4921,97.7784 41.5,102.5C 41.1667,106.833 40.8333,111.167 40.5,115.5C 39.502,106.859 39.1686,98.1922 39.5,89.5 Z"/></g>
<g><path style="opacity:1" fill="#e6f0f6" d="M 44.5,89.5 C 46.604,89.2011 48.604,89.5344 50.5,90.5C 54.199,100.18 60.8656,103.014 70.5,99C 73.3605,96.7806 75.3605,93.9473 76.5,90.5C 78.396,89.5344 80.396,89.2011 82.5,89.5C 82.5,98.5 82.5,107.5 82.5,116.5C 69.8211,119.015 57.1544,119.015 44.5,116.5C 44.5,107.5 44.5,98.5 44.5,89.5 Z"/></g>
<g><path style="opacity:1" fill="#f6cdac" d="M 73.5,90.5 C 69.9904,98.5749 64.3237,100.408 56.5,96C 54.84,94.5123 53.84,92.679 53.5,90.5C 53.369,89.7611 53.5357,89.0944 54,88.5C 60.1364,89.8173 66.3031,89.8173 72.5,88.5C 73.2975,88.9569 73.6309,89.6236 73.5,90.5 Z"/></g>
<g><path style="opacity:1" fill="#e45b85" d="M 85.5,89.5 C 86.8255,93.4451 87.4921,97.7784 87.5,102.5C 87.1667,106.833 86.8333,111.167 86.5,115.5C 85.502,106.859 85.1686,98.1922 85.5,89.5 Z"/></g>
<g><path style="opacity:1" fill="#ee678b" d="M 35.5,91.5 C 36.492,98.9818 36.8254,106.648 36.5,114.5C 25.5319,114.744 22.3653,109.744 27,99.5C 29.0678,95.9295 31.9012,93.2629 35.5,91.5 Z"/></g>
<g><path style="opacity:1" fill="#6d3645" d="M 35.5,91.5 C 35.56,90.9569 35.8933,90.6236 36.5,90.5C 37.8204,98.6572 37.8204,106.657 36.5,114.5C 36.8254,106.648 36.492,98.9818 35.5,91.5 Z"/></g>
<g><path style="opacity:1" fill="#6b3544" d="M 91.5,91.5 C 90.1667,99.1667 90.1667,106.833 91.5,114.5C 91.44,115.043 91.1067,115.376 90.5,115.5C 89.1667,107.167 89.1667,98.8333 90.5,90.5C 91.1067,90.6236 91.44,90.9569 91.5,91.5 Z"/></g>
<g><path style="opacity:1" fill="#ee668a" d="M 91.5,91.5 C 100.014,95.8648 103.014,102.698 100.5,112C 97.6883,113.549 94.6883,114.382 91.5,114.5C 90.1667,106.833 90.1667,99.1667 91.5,91.5 Z"/></g>
</svg>
